<?xml version="1.0" encoding="UTF-8"?>
<svg version="1.1" xmlns="http://www.w3.org/2000/svg" width="512" height="512">
<path d="M0 0 C6.76724589 -0.17935616 13.03088419 0.43110375 19.6875 1.625 C20.68789307 1.80393799 21.68828613 1.98287598 22.71899414 2.16723633 C82.24851092 13.25043101 140.25568782 46.21285924 177 95 C177.41910645 95.5480127 177.83821289 96.09602539 178.27001953 96.66064453 C204.18184461 130.61696004 221.12824273 169.06747879 229 211 C229.24991699 212.28028076 229.24991699 212.28028076 229.50488281 213.58642578 C234.68649297 241.17340408 234.11094636 272.46077962 229 300 C228.83902832 300.91555664 228.67805664 301.83111328 228.51220703 302.77441406 C224.30771032 326.15965515 216.50048133 348.71312173 206 370 C205.46705322 371.09248047 205.46705322 371.09248047 204.92333984 372.20703125 C196.83179833 388.63430346 186.56587416 403.82177342 175 418 C174.54689453 418.55606934 174.09378906 419.11213867 173.62695312 419.68505859 C162.91727859 432.71956989 151.2988701 444.59307409 138 455 C137.25105469 455.62777344 136.50210937 456.25554687 135.73046875 456.90234375 C122.38236841 468.02197078 107.36796085 476.98673001 92 485 C90.93338135 485.56581787 90.93338135 485.56581787 89.84521484 486.14306641 C68.16772838 497.52189718 44.04107539 504.75280197 20 509 C19.17306641 509.16081055 18.34613281 509.32162109 17.49414062 509.48730469 C-9.85492341 514.71358367 -41.72617028 514.54741839 -69 509 C-70.62880717 508.69478326 -72.25771518 508.39010427 -73.88671875 508.0859375 C-91.21617769 504.73458347 -107.70534358 499.75929223 -124 493 C-124.67772461 492.72430176 -125.35544922 492.44860352 -126.05371094 492.16455078 C-166.23884104 475.75905477 -203.29724405 446.94371335 -229 412 C-229.75023437 411.04480469 -230.50046875 410.08960938 -231.2734375 409.10546875 C-240.6178596 397.12165724 -248.10479045 383.94334015 -255.25 370.5625 C-255.74032715 369.65636963 -256.2306543 368.75023926 -256.73583984 367.81665039 C-257.400271 366.54809204 -257.400271 366.54809204 -258.078125 365.25390625 C-258.47418945 364.50439697 -258.87025391 363.7548877 -259.27832031 362.98266602 C-260 361 -260 361 -259 358 C-258.19820313 358.59425781 -257.39640625 359.18851562 -256.5703125 359.80078125 C-207.39896302 395.83817543 -147.75608994 413.26417477 -86.8984375 404.03515625 C-43.01392186 396.65264585 -5.42215288 378.04646129 28 349 C28.92296875 348.20207031 29.8459375 347.40414063 30.796875 346.58203125 C35.97260507 342.02582038 40.59623334 337.29769366 45 332 C45.74765625 331.14019531 46.4953125 330.28039062 47.265625 329.39453125 C58.19895675 316.65616832 67.14131963 302.81100992 75 288 C75.34659668 287.35595215 75.69319336 286.7119043 76.05029297 286.04833984 C103.1842852 235.33619561 106.47076771 174.73359321 90.28515625 120.1015625 C75.76476564 73.18894605 46.17700628 34.02367071 6.703125 5.26171875 C4.41853324 3.56923449 2.20329525 1.79653305 0 0 Z " fill="#030104" transform="translate(270,0)"/>
</svg>
